<mxfile host="app.diagrams.net" agent="Mozilla/5.0 (Windows NT 10.0; Win64; x64) AppleWebKit/537.36 (KHTML, like Gecko) Chrome/132.0.0.0 Safari/537.36" version="26.0.14">
  <diagram id="C5RBs43oDa-KdzZeNtuy" name="Page-1">
    <mxGraphModel dx="913" dy="614" grid="1" gridSize="10" guides="1" tooltips="1" connect="1" arrows="1" fold="1" page="1" pageScale="1" pageWidth="827" pageHeight="1169" math="0" shadow="0">
      <root>
        <mxCell id="WIyWlLk6GJQsqaUBKTNV-0" />
        <mxCell id="WIyWlLk6GJQsqaUBKTNV-1" parent="WIyWlLk6GJQsqaUBKTNV-0" />
        <mxCell id="PDEjf9X3RrQyyGm-wFtK-109" style="edgeStyle=orthogonalEdgeStyle;rounded=0;orthogonalLoop=1;jettySize=auto;html=1;exitX=0.5;exitY=1;exitDx=0;exitDy=0;entryX=0.5;entryY=0;entryDx=0;entryDy=0;" edge="1" parent="WIyWlLk6GJQsqaUBKTNV-1" source="PDEjf9X3RrQyyGm-wFtK-79" target="PDEjf9X3RrQyyGm-wFtK-78">
          <mxGeometry relative="1" as="geometry" />
        </mxCell>
        <mxCell id="PDEjf9X3RrQyyGm-wFtK-79" value="" style="whiteSpace=wrap;html=1;aspect=fixed;movable=1;resizable=1;rotatable=1;deletable=1;editable=1;locked=0;connectable=1;fillColor=light-dark(#E6E6E6,var(--ge-dark-color, #121212));" vertex="1" parent="WIyWlLk6GJQsqaUBKTNV-1">
          <mxGeometry x="310" y="370" width="160" height="160" as="geometry" />
        </mxCell>
        <mxCell id="WIyWlLk6GJQsqaUBKTNV-3" value="EEG" style="rounded=1;whiteSpace=wrap;html=1;fontSize=12;glass=0;strokeWidth=1;shadow=0;" parent="WIyWlLk6GJQsqaUBKTNV-1" vertex="1">
          <mxGeometry x="130" y="40" width="120" height="40" as="geometry" />
        </mxCell>
        <mxCell id="PDEjf9X3RrQyyGm-wFtK-3" style="edgeStyle=orthogonalEdgeStyle;rounded=0;orthogonalLoop=1;jettySize=auto;html=1;" edge="1" parent="WIyWlLk6GJQsqaUBKTNV-1" source="WIyWlLk6GJQsqaUBKTNV-3" target="PDEjf9X3RrQyyGm-wFtK-2">
          <mxGeometry relative="1" as="geometry" />
        </mxCell>
        <mxCell id="WIyWlLk6GJQsqaUBKTNV-7" value="Denoised EMG" style="rounded=1;whiteSpace=wrap;html=1;fontSize=12;glass=0;strokeWidth=1;shadow=0;" parent="WIyWlLk6GJQsqaUBKTNV-1" vertex="1">
          <mxGeometry x="280" y="150" width="120" height="40" as="geometry" />
        </mxCell>
        <mxCell id="PDEjf9X3RrQyyGm-wFtK-1" value="" style="edgeStyle=orthogonalEdgeStyle;rounded=0;orthogonalLoop=1;jettySize=auto;html=1;" edge="1" parent="WIyWlLk6GJQsqaUBKTNV-1" source="PDEjf9X3RrQyyGm-wFtK-0" target="WIyWlLk6GJQsqaUBKTNV-7">
          <mxGeometry relative="1" as="geometry" />
        </mxCell>
        <mxCell id="PDEjf9X3RrQyyGm-wFtK-0" value="EMG" style="rounded=1;whiteSpace=wrap;html=1;fontSize=12;glass=0;strokeWidth=1;shadow=0;" vertex="1" parent="WIyWlLk6GJQsqaUBKTNV-1">
          <mxGeometry x="280" y="40" width="120" height="40" as="geometry" />
        </mxCell>
        <mxCell id="PDEjf9X3RrQyyGm-wFtK-2" value="Denoised EEG" style="rounded=1;whiteSpace=wrap;html=1;fontSize=12;glass=0;strokeWidth=1;shadow=0;" vertex="1" parent="WIyWlLk6GJQsqaUBKTNV-1">
          <mxGeometry x="130" y="150" width="120" height="40" as="geometry" />
        </mxCell>
        <mxCell id="PDEjf9X3RrQyyGm-wFtK-5" value="Denoised EMG" style="rounded=1;whiteSpace=wrap;html=1;fontSize=12;glass=0;strokeWidth=1;shadow=0;" vertex="1" parent="WIyWlLk6GJQsqaUBKTNV-1">
          <mxGeometry x="760" y="255" width="120" height="40" as="geometry" />
        </mxCell>
        <mxCell id="PDEjf9X3RrQyyGm-wFtK-6" value="Frequency-domain features" style="rounded=1;whiteSpace=wrap;html=1;fontSize=12;glass=0;strokeWidth=1;shadow=0;" vertex="1" parent="WIyWlLk6GJQsqaUBKTNV-1">
          <mxGeometry x="960" y="255" width="140" height="40" as="geometry" />
        </mxCell>
        <mxCell id="PDEjf9X3RrQyyGm-wFtK-8" value="Time-frequency features" style="rounded=1;whiteSpace=wrap;html=1;fontSize=12;glass=0;strokeWidth=1;shadow=0;" vertex="1" parent="WIyWlLk6GJQsqaUBKTNV-1">
          <mxGeometry x="960" y="310" width="140" height="40" as="geometry" />
        </mxCell>
        <mxCell id="PDEjf9X3RrQyyGm-wFtK-9" value="Time-domain features" style="rounded=1;whiteSpace=wrap;html=1;fontSize=12;glass=0;strokeWidth=1;shadow=0;" vertex="1" parent="WIyWlLk6GJQsqaUBKTNV-1">
          <mxGeometry x="960" y="200" width="140" height="40" as="geometry" />
        </mxCell>
        <mxCell id="PDEjf9X3RrQyyGm-wFtK-31" style="edgeStyle=orthogonalEdgeStyle;rounded=0;orthogonalLoop=1;jettySize=auto;html=1;" edge="1" parent="WIyWlLk6GJQsqaUBKTNV-1" source="PDEjf9X3RrQyyGm-wFtK-32" target="PDEjf9X3RrQyyGm-wFtK-37">
          <mxGeometry relative="1" as="geometry" />
        </mxCell>
        <mxCell id="PDEjf9X3RrQyyGm-wFtK-32" value="Denoised EMG" style="rounded=1;whiteSpace=wrap;html=1;fontSize=12;glass=0;strokeWidth=1;shadow=0;" vertex="1" parent="WIyWlLk6GJQsqaUBKTNV-1">
          <mxGeometry x="30" y="400" width="120" height="40" as="geometry" />
        </mxCell>
        <mxCell id="PDEjf9X3RrQyyGm-wFtK-33" value="" style="edgeStyle=orthogonalEdgeStyle;rounded=0;orthogonalLoop=1;jettySize=auto;html=1;" edge="1" parent="WIyWlLk6GJQsqaUBKTNV-1" source="PDEjf9X3RrQyyGm-wFtK-34" target="PDEjf9X3RrQyyGm-wFtK-35">
          <mxGeometry relative="1" as="geometry" />
        </mxCell>
        <mxCell id="PDEjf9X3RrQyyGm-wFtK-34" value="Denoised EEG" style="rounded=1;whiteSpace=wrap;html=1;fontSize=12;glass=0;strokeWidth=1;shadow=0;" vertex="1" parent="WIyWlLk6GJQsqaUBKTNV-1">
          <mxGeometry x="160" y="400" width="120" height="40" as="geometry" />
        </mxCell>
        <mxCell id="PDEjf9X3RrQyyGm-wFtK-40" value="" style="rounded=0;orthogonalLoop=1;jettySize=auto;html=1;" edge="1" parent="WIyWlLk6GJQsqaUBKTNV-1" source="PDEjf9X3RrQyyGm-wFtK-35" target="PDEjf9X3RrQyyGm-wFtK-39">
          <mxGeometry relative="1" as="geometry">
            <Array as="points">
              <mxPoint x="220" y="510" />
            </Array>
          </mxGeometry>
        </mxCell>
        <mxCell id="PDEjf9X3RrQyyGm-wFtK-35" value="EEG spectrogram" style="rounded=1;whiteSpace=wrap;html=1;fontSize=12;glass=0;strokeWidth=1;shadow=0;" vertex="1" parent="WIyWlLk6GJQsqaUBKTNV-1">
          <mxGeometry x="160" y="460" width="120" height="40" as="geometry" />
        </mxCell>
        <mxCell id="PDEjf9X3RrQyyGm-wFtK-36" value="" style="edgeStyle=orthogonalEdgeStyle;rounded=0;orthogonalLoop=1;jettySize=auto;html=1;" edge="1" parent="WIyWlLk6GJQsqaUBKTNV-1" source="PDEjf9X3RrQyyGm-wFtK-37" target="PDEjf9X3RrQyyGm-wFtK-38">
          <mxGeometry relative="1" as="geometry" />
        </mxCell>
        <mxCell id="PDEjf9X3RrQyyGm-wFtK-37" value="EMG spectrogram" style="rounded=1;whiteSpace=wrap;html=1;fontSize=12;glass=0;strokeWidth=1;shadow=0;" vertex="1" parent="WIyWlLk6GJQsqaUBKTNV-1">
          <mxGeometry x="30" y="460" width="120" height="40" as="geometry" />
        </mxCell>
        <mxCell id="PDEjf9X3RrQyyGm-wFtK-47" style="edgeStyle=orthogonalEdgeStyle;rounded=0;orthogonalLoop=1;jettySize=auto;html=1;entryX=0.25;entryY=0;entryDx=0;entryDy=0;" edge="1" parent="WIyWlLk6GJQsqaUBKTNV-1" source="PDEjf9X3RrQyyGm-wFtK-38" target="PDEjf9X3RrQyyGm-wFtK-43">
          <mxGeometry relative="1" as="geometry" />
        </mxCell>
        <mxCell id="PDEjf9X3RrQyyGm-wFtK-38" value="CNN or&amp;nbsp;Transformer" style="rounded=1;whiteSpace=wrap;html=1;fontSize=12;glass=0;strokeWidth=1;shadow=0;fillColor=light-dark(#B9E0A5,#000000);" vertex="1" parent="WIyWlLk6GJQsqaUBKTNV-1">
          <mxGeometry x="30" y="520" width="120" height="40" as="geometry" />
        </mxCell>
        <mxCell id="PDEjf9X3RrQyyGm-wFtK-39" value="CNN or&amp;nbsp;Transformer" style="rounded=1;whiteSpace=wrap;html=1;fontSize=12;glass=0;strokeWidth=1;shadow=0;fillColor=light-dark(#B9E0A5,#000000);" vertex="1" parent="WIyWlLk6GJQsqaUBKTNV-1">
          <mxGeometry x="160" y="520" width="120" height="40" as="geometry" />
        </mxCell>
        <mxCell id="PDEjf9X3RrQyyGm-wFtK-51" value="" style="edgeStyle=orthogonalEdgeStyle;rounded=0;orthogonalLoop=1;jettySize=auto;html=1;" edge="1" parent="WIyWlLk6GJQsqaUBKTNV-1" source="PDEjf9X3RrQyyGm-wFtK-43" target="PDEjf9X3RrQyyGm-wFtK-50">
          <mxGeometry relative="1" as="geometry" />
        </mxCell>
        <mxCell id="PDEjf9X3RrQyyGm-wFtK-43" value="MLP 全连接分类层" style="whiteSpace=wrap;html=1;rounded=1;glass=0;strokeWidth=1;shadow=0;fillColor=light-dark(#A6D2EB,#000000);" vertex="1" parent="WIyWlLk6GJQsqaUBKTNV-1">
          <mxGeometry x="30" y="590" width="240" height="40" as="geometry" />
        </mxCell>
        <mxCell id="PDEjf9X3RrQyyGm-wFtK-123" style="edgeStyle=orthogonalEdgeStyle;rounded=0;orthogonalLoop=1;jettySize=auto;html=1;" edge="1" parent="WIyWlLk6GJQsqaUBKTNV-1" source="PDEjf9X3RrQyyGm-wFtK-50" target="PDEjf9X3RrQyyGm-wFtK-120">
          <mxGeometry relative="1" as="geometry" />
        </mxCell>
        <mxCell id="PDEjf9X3RrQyyGm-wFtK-50" value="MODEL 1" style="whiteSpace=wrap;html=1;rounded=1;glass=0;strokeWidth=1;shadow=0;" vertex="1" parent="WIyWlLk6GJQsqaUBKTNV-1">
          <mxGeometry x="90" y="670" width="120" height="50" as="geometry" />
        </mxCell>
        <mxCell id="PDEjf9X3RrQyyGm-wFtK-70" style="edgeStyle=orthogonalEdgeStyle;rounded=0;orthogonalLoop=1;jettySize=auto;html=1;entryX=0;entryY=0.5;entryDx=0;entryDy=0;" edge="1" parent="WIyWlLk6GJQsqaUBKTNV-1" source="PDEjf9X3RrQyyGm-wFtK-53" target="PDEjf9X3RrQyyGm-wFtK-68">
          <mxGeometry relative="1" as="geometry" />
        </mxCell>
        <mxCell id="PDEjf9X3RrQyyGm-wFtK-53" value="SVM、XGBoost 或 随机森林" style="rounded=1;whiteSpace=wrap;html=1;fontSize=12;glass=0;strokeWidth=1;shadow=0;" vertex="1" parent="WIyWlLk6GJQsqaUBKTNV-1">
          <mxGeometry x="1160" y="255" width="140" height="40" as="geometry" />
        </mxCell>
        <mxCell id="PDEjf9X3RrQyyGm-wFtK-72" value="" style="edgeStyle=orthogonalEdgeStyle;rounded=0;orthogonalLoop=1;jettySize=auto;html=1;" edge="1" parent="WIyWlLk6GJQsqaUBKTNV-1" source="PDEjf9X3RrQyyGm-wFtK-68" target="PDEjf9X3RrQyyGm-wFtK-71">
          <mxGeometry relative="1" as="geometry" />
        </mxCell>
        <mxCell id="PDEjf9X3RrQyyGm-wFtK-68" value="模型融合" style="rounded=1;whiteSpace=wrap;html=1;" vertex="1" parent="WIyWlLk6GJQsqaUBKTNV-1">
          <mxGeometry x="1370" y="150" width="120" height="60" as="geometry" />
        </mxCell>
        <mxCell id="PDEjf9X3RrQyyGm-wFtK-71" value="MODEL 2" style="rounded=1;whiteSpace=wrap;html=1;" vertex="1" parent="WIyWlLk6GJQsqaUBKTNV-1">
          <mxGeometry x="1570" y="150" width="120" height="60" as="geometry" />
        </mxCell>
        <mxCell id="PDEjf9X3RrQyyGm-wFtK-107" style="edgeStyle=orthogonalEdgeStyle;rounded=0;orthogonalLoop=1;jettySize=auto;html=1;entryX=0.5;entryY=0;entryDx=0;entryDy=0;" edge="1" parent="WIyWlLk6GJQsqaUBKTNV-1" source="PDEjf9X3RrQyyGm-wFtK-74" target="PDEjf9X3RrQyyGm-wFtK-79">
          <mxGeometry relative="1" as="geometry" />
        </mxCell>
        <mxCell id="PDEjf9X3RrQyyGm-wFtK-74" value="Denoised EMG" style="rounded=1;whiteSpace=wrap;html=1;fontSize=12;glass=0;strokeWidth=1;shadow=0;" vertex="1" parent="WIyWlLk6GJQsqaUBKTNV-1">
          <mxGeometry x="330" y="310" width="120" height="40" as="geometry" />
        </mxCell>
        <mxCell id="PDEjf9X3RrQyyGm-wFtK-75" value="Time-domain features" style="rounded=1;whiteSpace=wrap;html=1;fontSize=12;glass=0;strokeWidth=1;shadow=0;movable=1;resizable=1;rotatable=1;deletable=1;editable=1;locked=0;connectable=1;" vertex="1" parent="WIyWlLk6GJQsqaUBKTNV-1">
          <mxGeometry x="320" y="480" width="140" height="40" as="geometry" />
        </mxCell>
        <mxCell id="PDEjf9X3RrQyyGm-wFtK-76" value="Frequency-domain features" style="rounded=1;whiteSpace=wrap;html=1;fontSize=12;glass=0;strokeWidth=1;shadow=0;movable=1;resizable=1;rotatable=1;deletable=1;editable=1;locked=0;connectable=1;" vertex="1" parent="WIyWlLk6GJQsqaUBKTNV-1">
          <mxGeometry x="320" y="430" width="140" height="40" as="geometry" />
        </mxCell>
        <mxCell id="PDEjf9X3RrQyyGm-wFtK-77" value="Time-frequency features" style="rounded=1;whiteSpace=wrap;html=1;fontSize=12;glass=0;strokeWidth=1;shadow=0;movable=1;resizable=1;rotatable=1;deletable=1;editable=1;locked=0;connectable=1;" vertex="1" parent="WIyWlLk6GJQsqaUBKTNV-1">
          <mxGeometry x="320" y="380" width="140" height="40" as="geometry" />
        </mxCell>
        <mxCell id="PDEjf9X3RrQyyGm-wFtK-78" value="SVM、XGBoost 或 随机森林" style="rounded=1;whiteSpace=wrap;html=1;fontSize=12;glass=0;strokeWidth=1;shadow=0;fillColor=light-dark(#B9E0A5,#000000);" vertex="1" parent="WIyWlLk6GJQsqaUBKTNV-1">
          <mxGeometry x="320" y="550" width="140" height="40" as="geometry" />
        </mxCell>
        <mxCell id="PDEjf9X3RrQyyGm-wFtK-81" value="" style="edgeStyle=orthogonalEdgeStyle;rounded=0;orthogonalLoop=1;jettySize=auto;html=1;" edge="1" parent="WIyWlLk6GJQsqaUBKTNV-1" source="PDEjf9X3RrQyyGm-wFtK-5" target="PDEjf9X3RrQyyGm-wFtK-80">
          <mxGeometry relative="1" as="geometry">
            <mxPoint x="880" y="275" as="sourcePoint" />
            <mxPoint x="960" y="275" as="targetPoint" />
            <Array as="points" />
          </mxGeometry>
        </mxCell>
        <mxCell id="PDEjf9X3RrQyyGm-wFtK-80" value="" style="strokeWidth=2;html=1;shape=mxgraph.flowchart.annotation_2;align=left;labelPosition=right;pointerEvents=1;" vertex="1" parent="WIyWlLk6GJQsqaUBKTNV-1">
          <mxGeometry x="910" y="225" width="50" height="100" as="geometry" />
        </mxCell>
        <mxCell id="PDEjf9X3RrQyyGm-wFtK-85" value="Denoised EMG" style="rounded=1;whiteSpace=wrap;html=1;fontSize=12;glass=0;strokeWidth=1;shadow=0;" vertex="1" parent="WIyWlLk6GJQsqaUBKTNV-1">
          <mxGeometry x="760" y="65" width="120" height="40" as="geometry" />
        </mxCell>
        <mxCell id="PDEjf9X3RrQyyGm-wFtK-86" value="" style="edgeStyle=orthogonalEdgeStyle;rounded=0;orthogonalLoop=1;jettySize=auto;html=1;" edge="1" parent="WIyWlLk6GJQsqaUBKTNV-1" source="PDEjf9X3RrQyyGm-wFtK-87" target="PDEjf9X3RrQyyGm-wFtK-92">
          <mxGeometry relative="1" as="geometry" />
        </mxCell>
        <mxCell id="PDEjf9X3RrQyyGm-wFtK-87" value="Frequency-domain features" style="rounded=1;whiteSpace=wrap;html=1;fontSize=12;glass=0;strokeWidth=1;shadow=0;" vertex="1" parent="WIyWlLk6GJQsqaUBKTNV-1">
          <mxGeometry x="960" y="65" width="140" height="40" as="geometry" />
        </mxCell>
        <mxCell id="PDEjf9X3RrQyyGm-wFtK-88" style="edgeStyle=orthogonalEdgeStyle;rounded=0;orthogonalLoop=1;jettySize=auto;html=1;entryX=0;entryY=0.5;entryDx=0;entryDy=0;" edge="1" parent="WIyWlLk6GJQsqaUBKTNV-1" source="PDEjf9X3RrQyyGm-wFtK-89" target="PDEjf9X3RrQyyGm-wFtK-92">
          <mxGeometry relative="1" as="geometry" />
        </mxCell>
        <mxCell id="PDEjf9X3RrQyyGm-wFtK-89" value="Time-frequency features" style="rounded=1;whiteSpace=wrap;html=1;fontSize=12;glass=0;strokeWidth=1;shadow=0;" vertex="1" parent="WIyWlLk6GJQsqaUBKTNV-1">
          <mxGeometry x="960" y="120" width="140" height="40" as="geometry" />
        </mxCell>
        <mxCell id="PDEjf9X3RrQyyGm-wFtK-90" style="edgeStyle=orthogonalEdgeStyle;rounded=0;orthogonalLoop=1;jettySize=auto;html=1;entryX=0;entryY=0.5;entryDx=0;entryDy=0;" edge="1" parent="WIyWlLk6GJQsqaUBKTNV-1" source="PDEjf9X3RrQyyGm-wFtK-91" target="PDEjf9X3RrQyyGm-wFtK-92">
          <mxGeometry relative="1" as="geometry" />
        </mxCell>
        <mxCell id="PDEjf9X3RrQyyGm-wFtK-91" value="Time-domain features" style="rounded=1;whiteSpace=wrap;html=1;fontSize=12;glass=0;strokeWidth=1;shadow=0;" vertex="1" parent="WIyWlLk6GJQsqaUBKTNV-1">
          <mxGeometry x="960" y="10" width="140" height="40" as="geometry" />
        </mxCell>
        <mxCell id="PDEjf9X3RrQyyGm-wFtK-95" style="edgeStyle=orthogonalEdgeStyle;rounded=0;orthogonalLoop=1;jettySize=auto;html=1;entryX=0;entryY=0.5;entryDx=0;entryDy=0;" edge="1" parent="WIyWlLk6GJQsqaUBKTNV-1" source="PDEjf9X3RrQyyGm-wFtK-92" target="PDEjf9X3RrQyyGm-wFtK-68">
          <mxGeometry relative="1" as="geometry" />
        </mxCell>
        <mxCell id="PDEjf9X3RrQyyGm-wFtK-92" value="SVM、XGBoost 或 随机森林" style="rounded=1;whiteSpace=wrap;html=1;fontSize=12;glass=0;strokeWidth=1;shadow=0;" vertex="1" parent="WIyWlLk6GJQsqaUBKTNV-1">
          <mxGeometry x="1160" y="65" width="140" height="40" as="geometry" />
        </mxCell>
        <mxCell id="PDEjf9X3RrQyyGm-wFtK-93" value="" style="edgeStyle=orthogonalEdgeStyle;rounded=0;orthogonalLoop=1;jettySize=auto;html=1;" edge="1" parent="WIyWlLk6GJQsqaUBKTNV-1" source="PDEjf9X3RrQyyGm-wFtK-85" target="PDEjf9X3RrQyyGm-wFtK-94">
          <mxGeometry relative="1" as="geometry">
            <mxPoint x="880" y="85" as="sourcePoint" />
            <mxPoint x="960" y="85" as="targetPoint" />
            <Array as="points" />
          </mxGeometry>
        </mxCell>
        <mxCell id="PDEjf9X3RrQyyGm-wFtK-94" value="" style="strokeWidth=2;html=1;shape=mxgraph.flowchart.annotation_2;align=left;labelPosition=right;pointerEvents=1;" vertex="1" parent="WIyWlLk6GJQsqaUBKTNV-1">
          <mxGeometry x="910" y="35" width="50" height="100" as="geometry" />
        </mxCell>
        <mxCell id="PDEjf9X3RrQyyGm-wFtK-99" style="edgeStyle=orthogonalEdgeStyle;rounded=0;orthogonalLoop=1;jettySize=auto;html=1;exitX=0;exitY=0.5;exitDx=0;exitDy=0;exitPerimeter=0;entryX=0;entryY=0.5;entryDx=0;entryDy=0;" edge="1" parent="WIyWlLk6GJQsqaUBKTNV-1" source="PDEjf9X3RrQyyGm-wFtK-96" target="PDEjf9X3RrQyyGm-wFtK-53">
          <mxGeometry relative="1" as="geometry" />
        </mxCell>
        <mxCell id="PDEjf9X3RrQyyGm-wFtK-96" value="" style="strokeWidth=2;html=1;shape=mxgraph.flowchart.annotation_2;align=left;labelPosition=right;pointerEvents=1;direction=west;" vertex="1" parent="WIyWlLk6GJQsqaUBKTNV-1">
          <mxGeometry x="1100" y="225" width="50" height="100" as="geometry" />
        </mxCell>
        <mxCell id="PDEjf9X3RrQyyGm-wFtK-108" style="edgeStyle=orthogonalEdgeStyle;rounded=0;orthogonalLoop=1;jettySize=auto;html=1;exitX=0.5;exitY=1;exitDx=0;exitDy=0;entryX=0.5;entryY=0;entryDx=0;entryDy=0;" edge="1" parent="WIyWlLk6GJQsqaUBKTNV-1" source="PDEjf9X3RrQyyGm-wFtK-100" target="PDEjf9X3RrQyyGm-wFtK-105">
          <mxGeometry relative="1" as="geometry" />
        </mxCell>
        <mxCell id="PDEjf9X3RrQyyGm-wFtK-100" value="" style="whiteSpace=wrap;html=1;aspect=fixed;movable=1;resizable=1;rotatable=1;deletable=1;editable=1;locked=0;connectable=1;fillColor=light-dark(#E6E6E6,#000000);" vertex="1" parent="WIyWlLk6GJQsqaUBKTNV-1">
          <mxGeometry x="490" y="370" width="160" height="160" as="geometry" />
        </mxCell>
        <mxCell id="PDEjf9X3RrQyyGm-wFtK-106" style="edgeStyle=orthogonalEdgeStyle;rounded=0;orthogonalLoop=1;jettySize=auto;html=1;exitX=0.5;exitY=1;exitDx=0;exitDy=0;entryX=0.5;entryY=0;entryDx=0;entryDy=0;" edge="1" parent="WIyWlLk6GJQsqaUBKTNV-1" source="PDEjf9X3RrQyyGm-wFtK-101" target="PDEjf9X3RrQyyGm-wFtK-100">
          <mxGeometry relative="1" as="geometry" />
        </mxCell>
        <mxCell id="PDEjf9X3RrQyyGm-wFtK-101" value="Denoised EEG" style="rounded=1;whiteSpace=wrap;html=1;fontSize=12;glass=0;strokeWidth=1;shadow=0;" vertex="1" parent="WIyWlLk6GJQsqaUBKTNV-1">
          <mxGeometry x="510" y="310" width="120" height="40" as="geometry" />
        </mxCell>
        <mxCell id="PDEjf9X3RrQyyGm-wFtK-102" value="Time-domain features" style="rounded=1;whiteSpace=wrap;html=1;fontSize=12;glass=0;strokeWidth=1;shadow=0;movable=1;resizable=1;rotatable=1;deletable=1;editable=1;locked=0;connectable=1;" vertex="1" parent="WIyWlLk6GJQsqaUBKTNV-1">
          <mxGeometry x="500" y="480" width="140" height="40" as="geometry" />
        </mxCell>
        <mxCell id="PDEjf9X3RrQyyGm-wFtK-103" value="Frequency-domain features" style="rounded=1;whiteSpace=wrap;html=1;fontSize=12;glass=0;strokeWidth=1;shadow=0;movable=1;resizable=1;rotatable=1;deletable=1;editable=1;locked=0;connectable=1;" vertex="1" parent="WIyWlLk6GJQsqaUBKTNV-1">
          <mxGeometry x="500" y="430" width="140" height="40" as="geometry" />
        </mxCell>
        <mxCell id="PDEjf9X3RrQyyGm-wFtK-104" value="Time-frequency features" style="rounded=1;whiteSpace=wrap;html=1;fontSize=12;glass=0;strokeWidth=1;shadow=0;movable=1;resizable=1;rotatable=1;deletable=1;editable=1;locked=0;connectable=1;" vertex="1" parent="WIyWlLk6GJQsqaUBKTNV-1">
          <mxGeometry x="500" y="380" width="140" height="40" as="geometry" />
        </mxCell>
        <mxCell id="PDEjf9X3RrQyyGm-wFtK-105" value="SVM、XGBoost 或 随机森林" style="rounded=1;whiteSpace=wrap;html=1;fontSize=12;glass=0;strokeWidth=1;shadow=0;fillColor=light-dark(#B9E0A5,#000000);" vertex="1" parent="WIyWlLk6GJQsqaUBKTNV-1">
          <mxGeometry x="500" y="550" width="140" height="40" as="geometry" />
        </mxCell>
        <mxCell id="PDEjf9X3RrQyyGm-wFtK-118" style="edgeStyle=orthogonalEdgeStyle;rounded=0;orthogonalLoop=1;jettySize=auto;html=1;entryX=0.5;entryY=0;entryDx=0;entryDy=0;" edge="1" parent="WIyWlLk6GJQsqaUBKTNV-1" source="PDEjf9X3RrQyyGm-wFtK-110" target="PDEjf9X3RrQyyGm-wFtK-116">
          <mxGeometry relative="1" as="geometry" />
        </mxCell>
        <mxCell id="PDEjf9X3RrQyyGm-wFtK-110" value="模型融合（特征级融合/决策级融合）" style="rounded=1;whiteSpace=wrap;html=1;fillColor=light-dark(#A6D2EB,#000000);" vertex="1" parent="WIyWlLk6GJQsqaUBKTNV-1">
          <mxGeometry x="360" y="610" width="250" height="40" as="geometry" />
        </mxCell>
        <mxCell id="PDEjf9X3RrQyyGm-wFtK-111" style="edgeStyle=orthogonalEdgeStyle;rounded=0;orthogonalLoop=1;jettySize=auto;html=1;exitX=0.5;exitY=1;exitDx=0;exitDy=0;entryX=0.855;entryY=0.042;entryDx=0;entryDy=0;entryPerimeter=0;" edge="1" parent="WIyWlLk6GJQsqaUBKTNV-1" source="PDEjf9X3RrQyyGm-wFtK-105" target="PDEjf9X3RrQyyGm-wFtK-110">
          <mxGeometry relative="1" as="geometry">
            <mxPoint x="572" y="620" as="targetPoint" />
          </mxGeometry>
        </mxCell>
        <mxCell id="PDEjf9X3RrQyyGm-wFtK-112" style="edgeStyle=orthogonalEdgeStyle;rounded=0;orthogonalLoop=1;jettySize=auto;html=1;exitX=0.5;exitY=1;exitDx=0;exitDy=0;entryX=0.115;entryY=0.007;entryDx=0;entryDy=0;entryPerimeter=0;" edge="1" parent="WIyWlLk6GJQsqaUBKTNV-1" source="PDEjf9X3RrQyyGm-wFtK-78" target="PDEjf9X3RrQyyGm-wFtK-110">
          <mxGeometry relative="1" as="geometry">
            <mxPoint x="390" y="600" as="targetPoint" />
          </mxGeometry>
        </mxCell>
        <mxCell id="PDEjf9X3RrQyyGm-wFtK-113" style="edgeStyle=orthogonalEdgeStyle;rounded=0;orthogonalLoop=1;jettySize=auto;html=1;exitX=0.5;exitY=1;exitDx=0;exitDy=0;" edge="1" parent="WIyWlLk6GJQsqaUBKTNV-1" source="PDEjf9X3RrQyyGm-wFtK-39">
          <mxGeometry relative="1" as="geometry">
            <mxPoint x="220" y="590" as="targetPoint" />
          </mxGeometry>
        </mxCell>
        <mxCell id="PDEjf9X3RrQyyGm-wFtK-124" style="edgeStyle=orthogonalEdgeStyle;rounded=0;orthogonalLoop=1;jettySize=auto;html=1;entryX=0.5;entryY=0;entryDx=0;entryDy=0;" edge="1" parent="WIyWlLk6GJQsqaUBKTNV-1" source="PDEjf9X3RrQyyGm-wFtK-116" target="PDEjf9X3RrQyyGm-wFtK-120">
          <mxGeometry relative="1" as="geometry" />
        </mxCell>
        <mxCell id="PDEjf9X3RrQyyGm-wFtK-116" value="MODEL 2" style="whiteSpace=wrap;html=1;rounded=1;glass=0;strokeWidth=1;shadow=0;" vertex="1" parent="WIyWlLk6GJQsqaUBKTNV-1">
          <mxGeometry x="425" y="670" width="120" height="50" as="geometry" />
        </mxCell>
        <mxCell id="PDEjf9X3RrQyyGm-wFtK-127" value="" style="edgeStyle=orthogonalEdgeStyle;rounded=0;orthogonalLoop=1;jettySize=auto;html=1;" edge="1" parent="WIyWlLk6GJQsqaUBKTNV-1" source="PDEjf9X3RrQyyGm-wFtK-120" target="PDEjf9X3RrQyyGm-wFtK-126">
          <mxGeometry relative="1" as="geometry" />
        </mxCell>
        <mxCell id="PDEjf9X3RrQyyGm-wFtK-120" value="模型融合（特征级融合/决策级融合）" style="rounded=1;whiteSpace=wrap;html=1;fillColor=light-dark(#A6D2EB,#000000);" vertex="1" parent="WIyWlLk6GJQsqaUBKTNV-1">
          <mxGeometry x="160" y="760" width="300" height="40" as="geometry" />
        </mxCell>
        <mxCell id="PDEjf9X3RrQyyGm-wFtK-4" value="Preprocessing" style="rounded=1;whiteSpace=wrap;html=1;fillColor=light-dark(#B9E0A5,var(--ge-dark-color, #121212));" vertex="1" parent="WIyWlLk6GJQsqaUBKTNV-1">
          <mxGeometry x="160" y="90" width="220" height="40" as="geometry" />
        </mxCell>
        <mxCell id="PDEjf9X3RrQyyGm-wFtK-126" value="MODEL" style="whiteSpace=wrap;html=1;fillColor=light-dark(#FFFFFF,#000000);rounded=1;" vertex="1" parent="WIyWlLk6GJQsqaUBKTNV-1">
          <mxGeometry x="250" y="820" width="120" height="60" as="geometry" />
        </mxCell>
      </root>
    </mxGraphModel>
  </diagram>
</mxfile>
